<svg xmlns="http://www.w3.org/2000/svg" viewBox="0 0 771.35 715.43"><g id="Calque_2" data-name="Calque 2"><g id="Logo_9TQ" data-name="Logo 9TQ"><path d="M707.25,326.75h-51q-26.28,0-43-15.42t-16.75-45.51V81h49.12v69.72h58.26v36.17H645.56v70.16q0,14.08,5.33,20t16,5.9l40.37.18Z"/><path d="M745.71,620.13q13.5-23.61,13.51-54.45,0-30.46-13.51-53.89A93.74,93.74,0,0,0,708,475.43q-24.19-12.94-55.79-12.95-32,0-56.35,12.95A93.29,93.29,0,0,0,558,511.79q-13.53,23.43-13.52,53.89,0,30.84,13.52,54.45a92.94,92.94,0,0,0,37.89,36.56q24.36,12.94,56.35,12.94,26.82,0,48.26-9.35l27.91,28.43,30.83-30.84s-11.91-12.51-23.14-24A95.8,95.8,0,0,0,745.71,620.13ZM594.34,566.44q0-27.42,16-44.55t41.88-17.14q25.14,0,41.13,17.14t16,44.55c0,17-4.66,31-13.87,42a55.73,55.73,0,0,0-7.44-.86q-22.59-.95-43.71,20c-13.66-1.52-25-7-34-16.66Q594.33,593.86,594.34,566.44Z"/><path d="M247.25,0C110.7,0,0,110.7,0,247.25c0,130.5,101.11,237.3,229.25,246.53l-112.91,154,92.29,67.68s232.57-314.57,238-321.9a246,246,0,0,0,47.93-146.28C494.51,110.7,383.81,0,247.25,0Zm0,367A119.7,119.7,0,1,1,367,247.25,119.7,119.7,0,0,1,247.25,367Z"/><rect x="532.33" y="376.65" width="239.02" height="28.26"/></g></g></svg>